<svg width="14" height="13" viewBox="0 0 14 13" fill="none" xmlns="http://www.w3.org/2000/svg">
<path d="M7.87 13L7 12.5L9 9H12C12.2652 9 12.5196 8.89464 12.7071 8.70711C12.8946 8.51957 13 8.26522 13 8V2C13 1.73478 12.8946 1.48043 12.7071 1.29289C12.5196 1.10536 12.2652 1 12 1H2C1.73478 1 1.48043 1.10536 1.29289 1.29289C1.10536 1.48043 1 1.73478 1 2V8C1 8.26522 1.10536 8.51957 1.29289 8.70711C1.48043 8.89464 1.73478 9 2 9H6.5V10H2C1.46957 10 0.960859 9.78929 0.585786 9.41421C0.210714 9.03914 0 8.53043 0 8V2C0 1.46957 0.210714 0.960859 0.585786 0.585786C0.960859 0.210714 1.46957 0 2 0H12C12.5304 0 13.0391 0.210714 13.4142 0.585786C13.7893 0.960859 14 1.46957 14 2V8C14 8.53043 13.7893 9.03914 13.4142 9.41421C13.0391 9.78929 12.5304 10 12 10H9.58L7.87 13Z" fill="black" style="fill:black;fill-opacity:1;"/>
<path d="M7.5 2.5H6.5V4.5H4.5V5.5H6.5V7.5H7.5V5.5H9.5V4.5H7.5V2.5Z" fill="black" style="fill:black;fill-opacity:1;"/>
</svg>
