<svg width="22" height="22" viewBox="0 0 22 22" fill="none" xmlns="http://www.w3.org/2000/svg">
<path d="M8 15.5H2V5H11V3.5H2C1.60218 3.5 1.22064 3.65804 0.93934 3.93934C0.658035 4.22064 0.5 4.60218 0.5 5V15.5C0.5 15.8978 0.658035 16.2794 0.93934 16.5607C1.22064 16.842 1.60218 17 2 17H8V15.5Z" fill="#FAFAFA" style="fill:#FAFAFA;fill:color(display-p3 0.9804 0.9804 0.9804);fill-opacity:1;"/>
<path d="M9.12148 21.5L7.92147 20.6L11.75 15.5H17V11H18.5V15.5C18.4995 15.8977 18.3414 16.279 18.0602 16.5602C17.7789 16.8414 17.3977 16.9995 17 17H12.5L9.12148 21.5Z" fill="#FAFAFA" style="fill:#FAFAFA;fill:color(display-p3 0.9804 0.9804 0.9804);fill-opacity:1;"/>
<path d="M21.5 3.5H18.5V0.5H17V3.5H14V5H17V8H18.5V5H21.5V3.5Z" fill="#FAFAFA" style="fill:#FAFAFA;fill:color(display-p3 0.9804 0.9804 0.9804);fill-opacity:1;"/>
</svg>
