<svg width="24" height="24" viewBox="0 0 24 24" fill="none" xmlns="http://www.w3.org/2000/svg">
<rect width="24" height="24" fill="white" fill-opacity="0.01" style="mix-blend-mode:multiply"/>
<mask id="path-1-inside-1_3336_7803" fill="white">
<path d="M12.75 11.25V3.75H11.25V11.25H3.75V12.75H11.25V20.25H12.75V12.75H20.25V11.25H12.75Z"/>
</mask>
<path d="M12.75 11.25V3.75H11.25V11.25H3.75V12.75H11.25V20.25H12.75V12.75H20.25V11.25H12.75Z" fill="#161616"/>
<path d="M12.75 11.25H11.25V12.75H12.75V11.25ZM12.75 3.75H14.25V2.25H12.75V3.75ZM11.25 3.75V2.25H9.75V3.75H11.25ZM11.25 11.25V12.75H12.75V11.25H11.25ZM3.75 11.25V9.75H2.25V11.25H3.75ZM3.75 12.75H2.25V14.25H3.75V12.75ZM11.25 12.75H12.75V11.25H11.25V12.75ZM11.25 20.25H9.75V21.75H11.25V20.25ZM12.75 20.25V21.75H14.25V20.25H12.75ZM12.75 12.75V11.25H11.25V12.75H12.75ZM20.25 12.75V14.25H21.75V12.75H20.25ZM20.25 11.25H21.75V9.75H20.25V11.25ZM14.25 11.25V3.75H11.25V11.25H14.25ZM12.75 2.25H11.25V5.25H12.75V2.25ZM9.75 3.75V11.25H12.75V3.75H9.75ZM11.25 9.75H3.75V12.75H11.25V9.75ZM2.25 11.25V12.75H5.25V11.25H2.25ZM3.75 14.25H11.25V11.25H3.75V14.25ZM9.75 12.75V20.25H12.75V12.75H9.75ZM11.25 21.75H12.75V18.75H11.25V21.75ZM14.25 20.25V12.75H11.25V20.25H14.25ZM12.75 14.25H20.25V11.25H12.75V14.25ZM21.75 12.75V11.25H18.75V12.75H21.75ZM20.25 9.75H12.75V12.75H20.25V9.75Z" fill="#F9F9F9" mask="url(#path-1-inside-1_3336_7803)"/>
</svg>
