<svg width="9" height="16" viewBox="0 0 9 16" fill="none" xmlns="http://www.w3.org/2000/svg">
<path fill-rule="evenodd" clip-rule="evenodd" d="M6.86301 7.79896C7.14575 7.53767 7.37151 7.22082 7.52615 6.86825C7.68079 6.51569 7.76099 6.13499 7.76172 5.75V5.1875C7.76084 4.44185 7.46424 3.72699 6.93699 3.19973C6.40973 2.67248 5.69487 2.37588 4.94922 2.375V0.6875H3.82422V2.375H2.69922V0.6875H1.57422V2.375H0.449219V13.625H1.57422V15.3125H2.69922V13.625H4.38672V15.3125H5.51172V13.625C6.25737 13.6241 6.97223 13.3275 7.49949 12.8003C8.02674 12.273 8.32334 11.5582 8.32422 10.8125V10.25C8.32242 9.74805 8.18587 9.25579 7.92884 8.82464C7.6718 8.39348 7.30371 8.03926 6.86301 7.79896ZM4.94922 3.5H1.57422V7.4375H4.94922C5.39662 7.43701 5.82556 7.25906 6.14192 6.9427C6.45828 6.62634 6.63623 6.1974 6.63672 5.75V5.1875C6.63623 4.7401 6.45828 4.31116 6.14192 3.9948C5.82556 3.67844 5.39662 3.50049 4.94922 3.5ZM6.70442 12.0052C7.02078 11.6888 7.19873 11.2599 7.19922 10.8125V10.25C7.19873 9.8026 7.02078 9.37366 6.70442 9.0573C6.38806 8.74094 5.95912 8.56299 5.51172 8.5625H1.57422V12.5H5.51172C5.95912 12.4995 6.38806 12.3216 6.70442 12.0052Z" fill="#FAFAFA"/>
</svg>
