<svg width="18" height="17" viewBox="0 0 18 17" fill="none" xmlns="http://www.w3.org/2000/svg">
<path d="M10.0875 16.75L9 16.125L11.5 11.75H15.25C15.5815 11.75 15.8995 11.6183 16.1339 11.3839C16.3683 11.1495 16.5 10.8315 16.5 10.5V3C16.5 2.66848 16.3683 2.35054 16.1339 2.11612C15.8995 1.8817 15.5815 1.75 15.25 1.75H2.75C2.41848 1.75 2.10054 1.8817 1.86612 2.11612C1.6317 2.35054 1.5 2.66848 1.5 3V10.5C1.5 10.8315 1.6317 11.1495 1.86612 11.3839C2.10054 11.6183 2.41848 11.75 2.75 11.75H8.375V13H2.75C2.08696 13 1.45107 12.7366 0.982233 12.2678C0.513392 11.7989 0.25 11.163 0.25 10.5V3C0.25 2.33696 0.513392 1.70107 0.982233 1.23223C1.45107 0.763392 2.08696 0.5 2.75 0.5H15.25C15.913 0.5 16.5489 0.763392 17.0178 1.23223C17.4866 1.70107 17.75 2.33696 17.75 3V10.5C17.75 11.163 17.4866 11.7989 17.0178 12.2678C16.5489 12.7366 15.913 13 15.25 13H12.225L10.0875 16.75Z" fill="#737373" style="fill:#737373;fill:color(display-p3 0.4510 0.4510 0.4510);fill-opacity:1;"/>
<path d="M9.625 3.625H8.375V6.125H5.875V7.375H8.375V9.875H9.625V7.375H12.125V6.125H9.625V3.625Z" fill="#737373" style="fill:#737373;fill:color(display-p3 0.4510 0.4510 0.4510);fill-opacity:1;"/>
</svg>
