<svg width="56" height="56" viewBox="0 0 56 56" fill="none" xmlns="http://www.w3.org/2000/svg">
<rect width="56" height="56" fill="white" fill-opacity="0.01" style="mix-blend-mode:multiply"/>
<path d="M31.045 52.5L28 50.75L35 38.5H45.5C46.4283 38.5 47.3185 38.1312 47.9749 37.4749C48.6312 36.8185 49 35.9283 49 35V14C49 13.0717 48.6312 12.1815 47.9749 11.5251C47.3185 10.8687 46.4283 10.5 45.5 10.5H10.5C9.57174 10.5 8.6815 10.8687 8.02513 11.5251C7.36875 12.1815 7 13.0717 7 14V35C7 35.9283 7.36875 36.8185 8.02513 37.4749C8.6815 38.1312 9.57174 38.5 10.5 38.5H26.25V42H10.5C8.64348 42 6.86301 41.2625 5.55025 39.9497C4.2375 38.637 3.5 36.8565 3.5 35V14C3.5 12.1435 4.2375 10.363 5.55025 9.05025C6.86301 7.7375 8.64348 7 10.5 7H45.5C47.3565 7 49.137 7.7375 50.4497 9.05025C51.7625 10.363 52.5 12.1435 52.5 14V35C52.5 36.8565 51.7625 38.637 50.4497 39.9497C49.137 41.2625 47.3565 42 45.5 42H37.03L31.045 52.5Z" fill="#727772"/>
<path d="M42 17.5H14V21H42V17.5Z" fill="#727772"/>
<path d="M31.5 28H14V31.5H31.5V28Z" fill="#727772"/>
</svg>
