<svg width="48" height="48" viewBox="0 0 48 48" fill="none" xmlns="http://www.w3.org/2000/svg">
<rect width="48" height="48" fill="white" fill-opacity="0.01" style="mix-blend-mode:multiply"/>
<path d="M43.5 39H4.5C4.10218 39 3.72064 38.842 3.43934 38.5607C3.15804 38.2794 3 37.8978 3 37.5V12C3 11.6022 3.15804 11.2206 3.43934 10.9393C3.72064 10.658 4.10218 10.5 4.5 10.5H14.19L16.755 6.675C16.8909 6.46866 17.0756 6.29908 17.2928 6.18132C17.51 6.06356 17.7529 6.00128 18 6H30C30.2471 6.00128 30.49 6.06356 30.7072 6.18132C30.9244 6.29908 31.1091 6.46866 31.245 6.675L33.81 10.5H43.5C43.8978 10.5 44.2794 10.658 44.5607 10.9393C44.842 11.2206 45 11.6022 45 12V37.5C45 37.8978 44.842 38.2794 44.5607 38.5607C44.2794 38.842 43.8978 39 43.5 39ZM6 36H42V13.5H33C32.7529 13.4987 32.51 13.4364 32.2928 13.3187C32.0756 13.2009 31.8909 13.0313 31.755 12.825L29.19 9H18.81L16.245 12.825C16.1091 13.0313 15.9244 13.2009 15.7072 13.3187C15.49 13.4364 15.2471 13.4987 15 13.5H6V36Z" fill="#727772"/>
<path d="M24 33C22.22 33 20.4799 32.4722 18.9999 31.4832C17.5198 30.4943 16.3663 29.0887 15.6851 27.4442C15.0039 25.7996 14.8257 23.99 15.1729 22.2442C15.5202 20.4984 16.3774 18.8947 17.636 17.636C18.8947 16.3774 20.4984 15.5202 22.2442 15.1729C23.99 14.8257 25.7996 15.0039 27.4442 15.6851C29.0887 16.3663 30.4943 17.5198 31.4832 18.9999C32.4722 20.4799 33 22.22 33 24C33 26.3869 32.0518 28.6761 30.364 30.364C28.6761 32.0518 26.3869 33 24 33ZM24 18C22.8133 18 21.6533 18.3519 20.6666 19.0112C19.6799 19.6705 18.9108 20.6075 18.4567 21.7039C18.0026 22.8003 17.8838 24.0067 18.1153 25.1705C18.3468 26.3344 18.9182 27.4035 19.7574 28.2426C20.5965 29.0818 21.6656 29.6532 22.8295 29.8847C23.9933 30.1162 25.1997 29.9974 26.2961 29.5433C27.3925 29.0892 28.3295 28.3201 28.9888 27.3334C29.6481 26.3467 30 25.1867 30 24C30 22.4087 29.3679 20.8826 28.2426 19.7574C27.1174 18.6321 25.5913 18 24 18Z" fill="#727772"/>
</svg>
