<svg width="12" height="14" viewBox="0 0 12 14" fill="none" xmlns="http://www.w3.org/2000/svg">
<mask id="path-1-inside-1_3727_8613" fill="white">
<path d="M5 5H4V11H5V5Z"/>
<path d="M8 5H7V11H8V5Z"/>
<path d="M0 2V3H1V13C1 13.2652 1.10536 13.5196 1.29289 13.7071C1.48043 13.8946 1.73478 14 2 14H10C10.2652 14 10.5196 13.8946 10.7071 13.7071C10.8946 13.5196 11 13.2652 11 13V3H12V2H0ZM2 13V3H10V13H2Z"/>
<path d="M8 0H4V1H8V0Z"/>
</mask>
<path d="M5 5H4V11H5V5Z" fill="#161616"/>
<path d="M8 5H7V11H8V5Z" fill="#161616"/>
<path d="M0 2V3H1V13C1 13.2652 1.10536 13.5196 1.29289 13.7071C1.48043 13.8946 1.73478 14 2 14H10C10.2652 14 10.5196 13.8946 10.7071 13.7071C10.8946 13.5196 11 13.2652 11 13V3H12V2H0ZM2 13V3H10V13H2Z" fill="#161616"/>
<path d="M8 0H4V1H8V0Z" fill="#161616"/>
<path d="M5 5H6.33V3.67H5V5ZM4 5V3.67H2.67V5H4ZM4 11H2.67V12.33H4V11ZM5 11V12.33H6.33V11H5ZM8 5H9.33V3.67H8V5ZM7 5V3.67H5.67V5H7ZM7 11H5.67V12.33H7V11ZM8 11V12.33H9.33V11H8ZM0 2V0.67H-1.33V2H0ZM0 3H-1.33V4.33H0V3ZM1 3H2.33V1.67H1V3ZM11 3V1.67H9.67V3H11ZM12 3V4.33H13.33V3H12ZM12 2H13.33V0.67H12V2ZM2 13H0.67V14.33H2V13ZM2 3V1.67H0.67V3H2ZM10 3H11.33V1.67H10V3ZM10 13V14.33H11.33V13H10ZM8 0H9.33V-1.33H8V0ZM4 0V-1.33H2.67V0H4ZM4 1H2.67V2.33H4V1ZM8 1V2.33H9.33V1H8ZM5 3.67H4V6.33H5V3.67ZM2.67 5V11H5.33V5H2.67ZM4 12.33H5V9.67H4V12.33ZM6.33 11V5H3.67V11H6.33ZM8 3.67H7V6.33H8V3.67ZM5.67 5V11H8.33V5H5.67ZM7 12.33H8V9.67H7V12.33ZM9.33 11V5H6.67V11H9.33ZM-1.33 2V3H1.33V2H-1.33ZM0 4.33H1V1.67H0V4.33ZM-0.33 3V13H2.33V3H-0.33ZM-0.33 13C-0.33 13.618 -0.0845185 14.2106 0.352441 14.6476L2.23335 12.7667C2.29523 12.8285 2.33 12.9125 2.33 13H-0.33ZM0.352441 14.6476C0.7894 15.0845 1.38204 15.33 2 15.33V12.67C2.08752 12.67 2.17146 12.7048 2.23335 12.7667L0.352441 14.6476ZM2 15.33H10V12.67H2V15.33ZM10 15.33C10.618 15.33 11.2106 15.0845 11.6476 14.6476L9.76665 12.7667C9.82854 12.7048 9.91248 12.67 10 12.67V15.33ZM11.6476 14.6476C12.0845 14.2106 12.33 13.618 12.33 13H9.67C9.67 12.9125 9.70477 12.8285 9.76665 12.7667L11.6476 14.6476ZM12.33 13V3H9.67V13H12.33ZM11 4.33H12V1.67H11V4.33ZM13.33 3V2H10.67V3H13.33ZM12 0.67H0V3.33H12V0.67ZM3.33 13V3H0.67V13H3.33ZM2 4.33H10V1.67H2V4.33ZM8.67 3V13H11.33V3H8.67ZM10 11.67H2V14.33H10V11.67ZM8 -1.33H4V1.33H8V-1.33ZM2.67 0V1H5.33V0H2.67ZM4 2.33H8V-0.33H4V2.33ZM9.33 1V0H6.67V1H9.33Z" fill="#FEF2F2" mask="url(#path-1-inside-1_3727_8613)"/>
</svg>
