<svg width="19" height="13" viewBox="0 0 19 13" fill="none" xmlns="http://www.w3.org/2000/svg">
<path fill-rule="evenodd" clip-rule="evenodd" d="M6.5 12C6.78353 12 7.06205 11.9785 7.33402 11.9372C7.6435 12.2313 7.97807 12.4993 8.33419 12.7376C7.75249 12.9084 7.13695 13 6.5 13C2.91015 13 0 10.0899 0 6.5C0 2.91015 2.91015 0 6.5 0C7.13695 0 7.75249 0.0916152 8.33419 0.262387C7.97807 0.500693 7.6435 0.768687 7.33402 1.06283C7.06205 1.02145 6.78353 1 6.5 1C3.46243 1 1 3.46243 1 6.5C1 9.53757 3.46243 12 6.5 12ZM5.83506 9.94268C5.45036 9.19942 5.18634 8.3836 5.06893 7.52116L4.22319 6.50173C3.96635 6.19215 3.5239 6.16426 3.23495 6.43945C2.94601 6.71464 2.91998 7.18869 3.17682 7.49828L5.04348 9.74827C5.17632 9.90839 5.36672 10 5.56667 10C5.65982 10 5.75091 9.98011 5.83506 9.94268Z" fill="#727772"/>
<path fill-rule="evenodd" clip-rule="evenodd" d="M12.5 12C15.5376 12 18 9.53757 18 6.5C18 3.46243 15.5376 1 12.5 1C9.46243 1 7 3.46243 7 6.5C7 9.53757 9.46243 12 12.5 12ZM12.5 13C16.0899 13 19 10.0899 19 6.5C19 2.91015 16.0899 0 12.5 0C8.91015 0 6 2.91015 6 6.5C6 10.0899 8.91015 13 12.5 13Z" fill="#727772"/>
<path d="M15.765 3.93945C16.054 4.21464 16.08 4.68869 15.8232 4.99828L12.0899 9.49827C11.957 9.65839 11.7666 9.75 11.5667 9.75C11.3667 9.75 11.1763 9.65839 11.0435 9.49827L9.17682 7.24828C8.91998 6.93869 8.94601 6.46464 9.23495 6.18945C9.5239 5.91426 9.96635 5.94215 10.2232 6.25173L11.5667 7.8711L14.7768 4.00173C15.0337 3.69215 15.4761 3.66426 15.765 3.93945Z" fill="#727772"/>
</svg>
