<svg width="12" height="18" viewBox="0 0 12 18" fill="none" xmlns="http://www.w3.org/2000/svg">
<mask id="path-1-inside-1_3727_3654" fill="white">
<path d="M6 18L0.75 12.75L1.8075 11.6925L6 15.8775L10.1925 11.6925L11.25 12.75L6 18Z"/>
<path d="M6 0L11.25 5.25L10.1925 6.3075L6 2.1225L1.8075 6.3075L0.75 5.25L6 0Z"/>
</mask>
<path d="M6 18L0.75 12.75L1.8075 11.6925L6 15.8775L10.1925 11.6925L11.25 12.75L6 18Z" fill="#161616"/>
<path d="M6 0L11.25 5.25L10.1925 6.3075L6 2.1225L1.8075 6.3075L0.75 5.25L6 0Z" fill="#161616"/>
<path d="M6 18L0.75 12.75L1.8075 11.6925L6 15.8775L10.1925 11.6925L11.25 12.75L6 18Z" stroke="#727772" stroke-width="3" mask="url(#path-1-inside-1_3727_3654)"/>
<path d="M6 0L11.25 5.25L10.1925 6.3075L6 2.1225L1.8075 6.3075L0.75 5.25L6 0Z" stroke="#727772" stroke-width="3" mask="url(#path-1-inside-1_3727_3654)"/>
</svg>
