<svg width="14" height="14" viewBox="0 0 14 14" fill="none" xmlns="http://www.w3.org/2000/svg">
<path d="M6.99998 -0.000110412C6.07913 -0.00581982 5.16631 0.171343 4.31446 0.521104C3.4626 0.870864 2.68866 1.38626 2.03751 2.03741C1.38636 2.68856 0.870956 3.46251 0.521195 4.31436C0.171434 5.16622 -0.00572827 6.07904 -1.88595e-05 6.99989C-0.00572827 7.92074 0.171434 8.83356 0.521195 9.68541C0.870956 10.5373 1.38636 11.3112 2.03751 11.9624C2.68866 12.6135 3.4626 13.1289 4.31446 13.4787C5.16631 13.8284 6.07913 14.0056 6.99998 13.9999C7.92083 14.0056 8.83365 13.8284 9.6855 13.4787C10.5374 13.1289 11.3113 12.6135 11.9625 11.9624C12.6136 11.3112 13.129 10.5373 13.4788 9.68541C13.8285 8.83356 14.0057 7.92074 14 6.99989C14.0057 6.07904 13.8285 5.16622 13.4788 4.31436C13.129 3.46251 12.6136 2.68856 11.9625 2.03741C11.3113 1.38626 10.5374 0.870864 9.6855 0.521104C8.83365 0.171343 7.92083 -0.00581982 6.99998 -0.000110412ZM9.72243 10.4999L3.49998 4.27774L4.27783 3.49989L10.5 9.72229L9.72243 10.4999Z" fill="black" style="fill:black;fill-opacity:1;"/>
</svg>
