<svg width="14" height="13" viewBox="0 0 14 13" fill="none" xmlns="http://www.w3.org/2000/svg">
<path d="M9 5.5899L7.705 4.295L7 5L9 7L12 4L11.295 3.295L9 5.5899Z" fill="currentColor"/>
<path d="M4 7H3V8H4V7Z" fill="currentColor"/>
<path d="M5 2.5H2.5V3.5H4.5V4.5H3V6H4V5.5H5C5.2761 5.5 5.5 5.2761 5.5 5V3C5.5 2.7239 5.2761 2.5 5 2.5Z" fill="currentColor"/>
<path d="M7.8679 13L7 12.5L9 9H12C12.5535 9 13 8.5537 13 8V2C13 1.4463 12.5535 1 12 1H2C1.44645 1 1 1.4463 1 2V8C1 8.5537 1.44645 9 2 9H6.5V10H2C0.89535 10 0 9.105 0 8V2C0 0.89455 0.89535 0 2 0H12C13.1047 0 14 0.89455 14 2V8C14 9.105 13.1047 10 12 10H9.5823L7.8679 13Z" fill="currentColor"/>
</svg>
