<svg width="16" height="16" viewBox="0 0 16 16" fill="none" xmlns="http://www.w3.org/2000/svg">
<path d="M7.99996 11C7.48199 10.9992 6.97304 10.8643 6.52267 10.6085C6.0723 10.3526 5.69585 9.98452 5.42996 9.54L4.57496 10.04C4.93092 10.63 5.43329 11.1181 6.03336 11.4569C6.63343 11.7957 7.31085 11.9738 7.99996 11.9738C8.68906 11.9738 9.36648 11.7957 9.96655 11.4569C10.5666 11.1181 11.069 10.63 11.425 10.04L10.57 9.54C10.3041 9.98452 9.92761 10.3526 9.47724 10.6085C9.02687 10.8643 8.51793 10.9992 7.99996 11Z" fill="black" style="fill:black;fill-opacity:1;"/>
<path d="M15 2H13V0H12V2H9.99996V3H12V5H13V3H15V2Z" fill="black" style="fill:black;fill-opacity:1;"/>
<path d="M5.74996 5.5C5.50273 5.5 5.26106 5.57331 5.05549 5.71066C4.84993 5.84801 4.68972 6.04324 4.59511 6.27165C4.5005 6.50005 4.47574 6.75139 4.52397 6.99386C4.57221 7.23634 4.69126 7.45907 4.86607 7.63388C5.04089 7.8087 5.26362 7.92775 5.50609 7.97598C5.74857 8.02421 5.9999 7.99946 6.22831 7.90485C6.45672 7.81024 6.65194 7.65002 6.78929 7.44446C6.92665 7.2389 6.99996 6.99723 6.99996 6.75C7.00129 6.58548 6.96987 6.42233 6.90752 6.27007C6.84517 6.11782 6.75315 5.97949 6.63681 5.86315C6.52047 5.74681 6.38214 5.65478 6.22988 5.59244C6.07762 5.53009 5.91448 5.49867 5.74996 5.5Z" fill="black" style="fill:black;fill-opacity:1;"/>
<path d="M10.25 5.5C10.0027 5.5 9.76105 5.57331 9.55549 5.71066C9.34993 5.84801 9.18972 6.04324 9.09511 6.27165C9.0005 6.50005 8.97574 6.75139 9.02397 6.99386C9.07221 7.23634 9.19126 7.45907 9.36607 7.63388C9.54089 7.8087 9.76362 7.92775 10.0061 7.97598C10.2486 8.02421 10.4999 7.99946 10.7283 7.90485C10.9567 7.81024 11.1519 7.65002 11.2893 7.44446C11.4266 7.2389 11.5 6.99723 11.5 6.75C11.5013 6.58548 11.4699 6.42233 11.4075 6.27007C11.3452 6.11782 11.2531 5.97949 11.1368 5.86315C11.0205 5.74681 10.8821 5.65478 10.7299 5.59244C10.5776 5.53009 10.4145 5.49867 10.25 5.5Z" fill="black" style="fill:black;fill-opacity:1;"/>
<path d="M13.805 6.5C13.9313 6.9901 13.9968 7.49389 14 8C14 9.18669 13.6481 10.3467 12.9888 11.3334C12.3295 12.3201 11.3924 13.0892 10.2961 13.5433C9.1997 13.9974 7.9933 14.1162 6.82941 13.8847C5.66553 13.6532 4.59643 13.0818 3.75732 12.2426C2.9182 11.4035 2.34676 10.3344 2.11524 9.17054C1.88373 8.00666 2.00255 6.80026 2.45668 5.7039C2.9108 4.60754 3.67984 3.67047 4.66654 3.01118C5.65323 2.35189 6.81327 2 7.99996 2V1C6.55094 0.999504 5.13749 1.44869 3.9546 2.28559C2.77171 3.12249 1.87768 4.30585 1.39587 5.67242C0.914052 7.03898 0.868198 8.52138 1.26463 9.91511C1.66106 11.3088 2.48024 12.5452 3.60914 13.4536C4.73805 14.362 6.12104 14.8977 7.56731 14.9868C9.01358 15.0758 10.4519 14.7139 11.6837 13.9508C12.9155 13.1878 13.8802 12.0613 14.4446 10.7267C15.0091 9.39218 15.1455 7.91535 14.835 6.5H13.805Z" fill="black" style="fill:black;fill-opacity:1;"/>
</svg>
