<svg width="14" height="14" viewBox="0 0 14 14" fill="none" xmlns="http://www.w3.org/2000/svg">
<path d="M7 0C5.61553 0 4.26216 0.410543 3.11101 1.17971C1.95987 1.94888 1.06266 3.04213 0.532846 4.32122C0.00303298 5.6003 -0.13559 7.00776 0.134506 8.36563C0.404603 9.7235 1.07129 10.9708 2.05026 11.9497C3.02922 12.9287 4.2765 13.5954 5.63437 13.8655C6.99224 14.1356 8.3997 13.997 9.67879 13.4672C10.9579 12.9373 12.0511 12.0401 12.8203 10.889C13.5895 9.73785 14 8.38447 14 7C14 5.14348 13.2625 3.36301 11.9497 2.05025C10.637 0.737498 8.85652 0 7 0ZM7 13C5.81332 13 4.65328 12.6481 3.66658 11.9888C2.67989 11.3295 1.91085 10.3925 1.45673 9.2961C1.0026 8.19974 0.88378 6.99334 1.11529 5.82946C1.3468 4.66557 1.91825 3.59647 2.75736 2.75736C3.59648 1.91824 4.66558 1.3468 5.82946 1.11529C6.99335 0.883777 8.19975 1.0026 9.2961 1.45672C10.3925 1.91085 11.3295 2.67988 11.9888 3.66658C12.6481 4.65327 13 5.81331 13 7C13 8.5913 12.3679 10.1174 11.2426 11.2426C10.1174 12.3679 8.5913 13 7 13Z" fill="#727772"/>
<path d="M7 11.5C7.41422 11.5 7.75 11.1642 7.75 10.75C7.75 10.3358 7.41422 10 7 10C6.58579 10 6.25 10.3358 6.25 10.75C6.25 11.1642 6.58579 11.5 7 11.5Z" fill="#727772"/>
<path d="M7.5 3H6.75C6.45434 2.99934 6.16147 3.05709 5.88819 3.16993C5.61491 3.28277 5.36661 3.44848 5.15754 3.65754C4.94848 3.8666 4.78277 4.1149 4.66993 4.38818C4.55709 4.66146 4.49934 4.95434 4.5 5.25V5.5H5.5V5.25C5.5 4.91848 5.6317 4.60054 5.86612 4.36612C6.10054 4.1317 6.41848 4 6.75 4H7.5C7.83152 4 8.14947 4.1317 8.38389 4.36612C8.61831 4.60054 8.75 4.91848 8.75 5.25C8.75 5.58152 8.61831 5.89946 8.38389 6.13388C8.14947 6.3683 7.83152 6.5 7.5 6.5H6.5V8.75H7.5V7.5C8.09674 7.5 8.66904 7.26295 9.09099 6.84099C9.51295 6.41903 9.75 5.84674 9.75 5.25C9.75 4.65326 9.51295 4.08097 9.09099 3.65901C8.66904 3.23705 8.09674 3 7.5 3Z" fill="#727772"/>
</svg>
