<svg width="14" height="15" viewBox="0 0 14 15" fill="none" xmlns="http://www.w3.org/2000/svg">
<path d="M12 8.29295V6.5C11.9996 5.71738 11.8139 4.94597 11.4584 4.2488L14 1.70705L13.2929 1L0 14.2929L0.70705 15L3.70705 12H4.5V12.5C4.5 13.163 4.76339 13.7989 5.23223 14.2678C5.70107 14.7366 6.33696 15 7 15C7.66304 15 8.29893 14.7366 8.76777 14.2678C9.23661 13.7989 9.5 13.163 9.5 12.5V12H13C13.1326 12 13.2598 11.9473 13.3536 11.8536C13.4473 11.7598 13.5 11.6326 13.5 11.5V10C13.5 9.8674 13.4473 9.74025 13.3535 9.6465L12 8.29295ZM8.5 12.5C8.5 12.8978 8.34196 13.2794 8.06066 13.5607C7.77936 13.842 7.39782 14 7 14C6.60218 14 6.22064 13.842 5.93934 13.5607C5.65804 13.2794 5.5 12.8978 5.5 12.5V12H8.5V12.5ZM12.5 11H4.70705L10.7059 5.0012C10.8999 5.47709 10.9998 5.98609 11 6.5V8.5C11 8.6326 11.0527 8.75975 11.1465 8.8535L12.5 10.2071V11Z" fill="black" style="fill:black;fill-opacity:1;"/>
<path d="M2.8535 8.8535C2.94727 8.75975 2.99997 8.6326 3 8.5V6.5C3.00122 5.43951 3.42304 4.4228 4.17292 3.67292C4.9228 2.92304 5.93951 2.50122 7 2.5C7.90768 2.50048 8.78767 2.81256 9.49285 3.38405L10.206 2.6709C9.44021 2.02488 8.4969 1.62557 7.5 1.5254V0.5H6.5V1.5254C5.26734 1.65082 4.12496 2.22884 3.29377 3.1477C2.46257 4.06655 2.0016 5.26098 2 6.5V8.29295L0.5 9.79295L1.20705 10.5L2.8535 8.8535Z" fill="black" style="fill:black;fill-opacity:1;"/>
</svg>
