<svg width="14" height="15" viewBox="0 0 14 15" fill="none" xmlns="http://www.w3.org/2000/svg">
<path d="M13.1035 9.6465L11.75 8.29295V6.5C11.7484 5.26098 11.2874 4.06655 10.4562 3.1477C9.62504 2.22884 8.48266 1.65082 7.25 1.5254V0.5H6.25V1.5254C5.01734 1.65082 3.87496 2.22884 3.04377 3.1477C2.21257 4.06655 1.7516 5.26098 1.75 6.5V8.29295L0.39645 9.6465C0.302694 9.74025 0.250015 9.86741 0.25 10V11.5C0.25 11.6326 0.302678 11.7598 0.396447 11.8536C0.490215 11.9473 0.617392 12 0.75 12H4.25V12.3884C4.23916 13.0227 4.46276 13.6387 4.87794 14.1183C5.29313 14.598 5.8707 14.9076 6.5 14.9878C6.84757 15.0222 7.19852 14.9836 7.53026 14.8743C7.862 14.765 8.1672 14.5875 8.42622 14.3532C8.68524 14.1189 8.89235 13.8329 9.03422 13.5138C9.1761 13.1946 9.2496 12.8493 9.25 12.5V12H12.75C12.8826 12 13.0098 11.9473 13.1036 11.8536C13.1973 11.7598 13.25 11.6326 13.25 11.5V10C13.25 9.86741 13.1973 9.74025 13.1035 9.6465ZM8.25 12.5C8.25 12.8978 8.09196 13.2794 7.81066 13.5607C7.52936 13.842 7.14782 14 6.75 14C6.35218 14 5.97064 13.842 5.68934 13.5607C5.40804 13.2794 5.25 12.8978 5.25 12.5V12H8.25V12.5ZM12.25 11H1.25V10.2071L2.6035 8.8535C2.69727 8.75975 2.74997 8.6326 2.75 8.5V6.5C2.75 5.43913 3.17143 4.42172 3.92157 3.67157C4.67172 2.92143 5.68913 2.5 6.75 2.5C7.81087 2.5 8.82828 2.92143 9.57843 3.67157C10.3286 4.42172 10.75 5.43913 10.75 6.5V8.5C10.75 8.6326 10.8027 8.75975 10.8965 8.8535L12.25 10.2071V11Z" fill="#0A0A0A" style="fill:#0A0A0A;fill:color(display-p3 0.0392 0.0392 0.0392);fill-opacity:1;"/>
</svg>
