<svg width="16" height="16" viewBox="0 0 16 16" fill="none" xmlns="http://www.w3.org/2000/svg">
<path d="M14.75 4.625H11.375V1.25C11.3747 0.951737 11.256 0.665787 11.0451 0.454883C10.8342 0.243979 10.5483 0.125342 10.25 0.125H1.25C0.951737 0.125342 0.665787 0.243979 0.454883 0.454883C0.243979 0.665787 0.125342 0.951737 0.125 1.25V10.25C0.125342 10.5483 0.243979 10.8342 0.454883 11.0451C0.665787 11.256 0.951737 11.3747 1.25 11.375H4.625V14.75C4.625 15.0484 4.74353 15.3345 4.9545 15.5455C5.16548 15.7565 5.45163 15.875 5.75 15.875H14.75C15.0484 15.875 15.3345 15.7565 15.5455 15.5455C15.7565 15.3345 15.875 15.0484 15.875 14.75V5.75C15.875 5.45163 15.7565 5.16548 15.5455 4.9545C15.3345 4.74353 15.0484 4.625 14.75 4.625ZM1.25 10.25L1.24916 1.25H10.25V4.625H5.75C5.45163 4.625 5.16548 4.74353 4.9545 4.9545C4.74353 5.16548 4.625 5.45163 4.625 5.75V10.25H1.25Z" fill="#FAFAFA"/>
</svg>
