<svg width="12" height="14" viewBox="0 0 12 14" fill="none" xmlns="http://www.w3.org/2000/svg">
<path d="M11 9.00001H6.915L8.205 7.70501L7.5 7.00001L5 9.50001L7.5 12L8.205 11.295L6.915 10H11V14H12V10C12 9.73479 11.8946 9.48044 11.7071 9.2929C11.5196 9.10537 11.2652 9.00001 11 9.00001Z" fill="#161616"/>
<path d="M9.855 3.64501L6.355 0.145008C6.30828 0.0986677 6.25287 0.062005 6.19195 0.0371227C6.13103 0.0122404 6.0658 -0.000372089 6 8.35715e-06H1C0.734784 8.35715e-06 0.48043 0.105365 0.292893 0.292902C0.105357 0.480438 0 0.734792 0 1.00001V13C0 13.2652 0.105357 13.5196 0.292893 13.7071C0.48043 13.8947 0.734784 14 1 14H5V13H1V1.00001H5V4.00001C5 4.26523 5.10536 4.51958 5.29289 4.70712C5.48043 4.89465 5.73478 5.00001 6 5.00001H9V6.00001H10V4.00001C10.0004 3.93421 9.98777 3.86897 9.96289 3.80806C9.938 3.74714 9.90134 3.69173 9.855 3.64501ZM6 1.20501L8.795 4.00001H6V1.20501Z" fill="#161616"/>
</svg>
