<svg width="14" height="14" viewBox="0 0 14 14" fill="none" xmlns="http://www.w3.org/2000/svg">
<path d="M10 10.9999H4C3.73478 10.9999 3.48043 10.8945 3.29289 10.707C3.10536 10.5195 3 10.2651 3 9.9999V8.4999H4V9.9999H10V8.4999H11V9.9999C11 10.2651 10.8946 10.5195 10.7071 10.707C10.5196 10.8945 10.2652 10.9999 10 10.9999Z" fill="#161616"/>
<path d="M14 6.4999H0V7.4999H14V6.4999Z" fill="#161616"/>
<path d="M11 5.4999H10V3.9999H4V5.4999H3V3.9999C3 3.73468 3.10536 3.48033 3.29289 3.29279C3.48043 3.10526 3.73478 2.9999 4 2.9999H10C10.2652 2.9999 10.5196 3.10526 10.7071 3.29279C10.8946 3.48033 11 3.73468 11 3.9999V5.4999Z" fill="#161616"/>
<path d="M14 4H13V1H10V0H14V4Z" fill="#161616"/>
<path d="M1 4H0V0H4V1H1V4Z" fill="#161616"/>
<path d="M4 14H0V10H1V13H4V14Z" fill="#161616"/>
<path d="M14 14H10V13H13V10H14V14Z" fill="#161616"/>
</svg>
