<svg width="14" height="13" viewBox="0 0 14 13" fill="none" xmlns="http://www.w3.org/2000/svg">
<path d="M11.25 12H1.25V2H6.25V1H1.25C0.984865 1.00026 0.730665 1.10571 0.543186 1.29319C0.355707 1.48066 0.250265 1.73486 0.25 2V12C0.250265 12.2651 0.355707 12.5193 0.543186 12.7068C0.730665 12.8943 0.984865 12.9997 1.25 13H11.25C11.5151 12.9997 11.7693 12.8943 11.9568 12.7068C12.1443 12.5193 12.2497 12.2651 12.25 12V7H11.25V12Z" fill="#0A0A0A"/>
<path d="M11.25 12H1.25V2H6.25V1H1.25C0.984865 1.00026 0.730665 1.10571 0.543186 1.29319C0.355707 1.48066 0.250265 1.73486 0.25 2V12C0.250265 12.2651 0.355707 12.5193 0.543186 12.7068C0.730665 12.8943 0.984865 12.9997 1.25 13H11.25C11.5151 12.9997 11.7693 12.8943 11.9568 12.7068C12.1443 12.5193 12.2497 12.2651 12.25 12V7H11.25V12Z" fill="#0A0A0A"/>
<path d="M11.25 2V0H10.25V2H8.25V3H10.25V5H11.25V3H13.25V2H11.25Z" fill="#0A0A0A"/>
</svg>
