<svg width="12" height="12" viewBox="0 0 12 12" fill="none" xmlns="http://www.w3.org/2000/svg">
<mask id="path-1-inside-1_3336_8173" fill="white">
<path d="M4.5 1.5C4.87084 1.5 5.23335 1.60997 5.54169 1.81599C5.85004 2.02202 6.09036 2.31486 6.23227 2.65747C6.37419 3.00008 6.41132 3.37708 6.33897 3.74079C6.26663 4.10451 6.08805 4.4386 5.82583 4.70083C5.5636 4.96305 5.22951 5.14163 4.86579 5.21397C4.50208 5.28632 4.12508 5.24919 3.78247 5.10727C3.43986 4.96536 3.14702 4.72504 2.94099 4.41669C2.73497 4.10835 2.625 3.74584 2.625 3.375C2.625 2.87772 2.82254 2.40081 3.17417 2.04917C3.52581 1.69754 4.00272 1.5 4.5 1.5ZM4.5 0.75C3.98082 0.75 3.47331 0.903954 3.04163 1.19239C2.60995 1.48083 2.2735 1.8908 2.07482 2.37046C1.87614 2.85011 1.82415 3.37791 1.92544 3.88711C2.02672 4.39631 2.27673 4.86404 2.64384 5.23116C3.01096 5.59827 3.47869 5.84828 3.98789 5.94956C4.49709 6.05085 5.02489 5.99886 5.50454 5.80018C5.9842 5.6015 6.39417 5.26505 6.68261 4.83337C6.97105 4.40169 7.125 3.89418 7.125 3.375C7.125 2.67881 6.84844 2.01113 6.35616 1.51884C5.86387 1.02656 5.19619 0.75 4.5 0.75Z"/>
<path d="M8.25 11.25H7.5V9.375C7.5 8.87772 7.30246 8.40081 6.95083 8.04917C6.59919 7.69754 6.12228 7.5 5.625 7.5H3.375C2.87772 7.5 2.40081 7.69754 2.04917 8.04917C1.69754 8.40081 1.5 8.87772 1.5 9.375V11.25H0.75V9.375C0.75 8.67881 1.02656 8.01113 1.51884 7.51884C2.01113 7.02656 2.67881 6.75 3.375 6.75H5.625C6.32119 6.75 6.98887 7.02656 7.48116 7.51884C7.97344 8.01113 8.25 8.67881 8.25 9.375V11.25Z"/>
<path d="M9.375 6.0675L8.40375 5.09625L7.875 5.625L9.375 7.125L12 4.5L11.4713 3.97125L9.375 6.0675Z"/>
</mask>
<path d="M4.5 1.5C4.87084 1.5 5.23335 1.60997 5.54169 1.81599C5.85004 2.02202 6.09036 2.31486 6.23227 2.65747C6.37419 3.00008 6.41132 3.37708 6.33897 3.74079C6.26663 4.10451 6.08805 4.4386 5.82583 4.70083C5.5636 4.96305 5.22951 5.14163 4.86579 5.21397C4.50208 5.28632 4.12508 5.24919 3.78247 5.10727C3.43986 4.96536 3.14702 4.72504 2.94099 4.41669C2.73497 4.10835 2.625 3.74584 2.625 3.375C2.625 2.87772 2.82254 2.40081 3.17417 2.04917C3.52581 1.69754 4.00272 1.5 4.5 1.5ZM4.5 0.75C3.98082 0.75 3.47331 0.903954 3.04163 1.19239C2.60995 1.48083 2.2735 1.8908 2.07482 2.37046C1.87614 2.85011 1.82415 3.37791 1.92544 3.88711C2.02672 4.39631 2.27673 4.86404 2.64384 5.23116C3.01096 5.59827 3.47869 5.84828 3.98789 5.94956C4.49709 6.05085 5.02489 5.99886 5.50454 5.80018C5.9842 5.6015 6.39417 5.26505 6.68261 4.83337C6.97105 4.40169 7.125 3.89418 7.125 3.375C7.125 2.67881 6.84844 2.01113 6.35616 1.51884C5.86387 1.02656 5.19619 0.75 4.5 0.75Z" fill="#161616"/>
<path d="M8.25 11.25H7.5V9.375C7.5 8.87772 7.30246 8.40081 6.95083 8.04917C6.59919 7.69754 6.12228 7.5 5.625 7.5H3.375C2.87772 7.5 2.40081 7.69754 2.04917 8.04917C1.69754 8.40081 1.5 8.87772 1.5 9.375V11.25H0.75V9.375C0.75 8.67881 1.02656 8.01113 1.51884 7.51884C2.01113 7.02656 2.67881 6.75 3.375 6.75H5.625C6.32119 6.75 6.98887 7.02656 7.48116 7.51884C7.97344 8.01113 8.25 8.67881 8.25 9.375V11.25Z" fill="#161616"/>
<path d="M9.375 6.0675L8.40375 5.09625L7.875 5.625L9.375 7.125L12 4.5L11.4713 3.97125L9.375 6.0675Z" fill="#161616"/>
<path d="M4.5 1.5C4.87084 1.5 5.23335 1.60997 5.54169 1.81599C5.85004 2.02202 6.09036 2.31486 6.23227 2.65747C6.37419 3.00008 6.41132 3.37708 6.33897 3.74079C6.26663 4.10451 6.08805 4.4386 5.82583 4.70083C5.5636 4.96305 5.22951 5.14163 4.86579 5.21397C4.50208 5.28632 4.12508 5.24919 3.78247 5.10727C3.43986 4.96536 3.14702 4.72504 2.94099 4.41669C2.73497 4.10835 2.625 3.74584 2.625 3.375C2.625 2.87772 2.82254 2.40081 3.17417 2.04917C3.52581 1.69754 4.00272 1.5 4.5 1.5ZM4.5 0.75C3.98082 0.75 3.47331 0.903954 3.04163 1.19239C2.60995 1.48083 2.2735 1.8908 2.07482 2.37046C1.87614 2.85011 1.82415 3.37791 1.92544 3.88711C2.02672 4.39631 2.27673 4.86404 2.64384 5.23116C3.01096 5.59827 3.47869 5.84828 3.98789 5.94956C4.49709 6.05085 5.02489 5.99886 5.50454 5.80018C5.9842 5.6015 6.39417 5.26505 6.68261 4.83337C6.97105 4.40169 7.125 3.89418 7.125 3.375C7.125 2.67881 6.84844 2.01113 6.35616 1.51884C5.86387 1.02656 5.19619 0.75 4.5 0.75Z" stroke="#2D312D" stroke-width="1.5" mask="url(#path-1-inside-1_3336_8173)"/>
<path d="M8.25 11.25H7.5V9.375C7.5 8.87772 7.30246 8.40081 6.95083 8.04917C6.59919 7.69754 6.12228 7.5 5.625 7.5H3.375C2.87772 7.5 2.40081 7.69754 2.04917 8.04917C1.69754 8.40081 1.5 8.87772 1.5 9.375V11.25H0.75V9.375C0.75 8.67881 1.02656 8.01113 1.51884 7.51884C2.01113 7.02656 2.67881 6.75 3.375 6.75H5.625C6.32119 6.75 6.98887 7.02656 7.48116 7.51884C7.97344 8.01113 8.25 8.67881 8.25 9.375V11.25Z" stroke="#2D312D" stroke-width="1.5" mask="url(#path-1-inside-1_3336_8173)"/>
<path d="M9.375 6.0675L8.40375 5.09625L7.875 5.625L9.375 7.125L12 4.5L11.4713 3.97125L9.375 6.0675Z" stroke="#2D312D" stroke-width="1.5" mask="url(#path-1-inside-1_3336_8173)"/>
</svg>
