<svg width="14" height="14" viewBox="0 0 14 14" fill="none" xmlns="http://www.w3.org/2000/svg">
<path d="M7 0C5.61553 0 4.26216 0.410543 3.11101 1.17971C1.95987 1.94888 1.06266 3.04213 0.532846 4.32122C0.00303298 5.6003 -0.13559 7.00776 0.134506 8.36563C0.404603 9.7235 1.07129 10.9708 2.05026 11.9497C3.02922 12.9287 4.2765 13.5954 5.63437 13.8655C6.99224 14.1356 8.3997 13.997 9.67879 13.4672C10.9579 12.9373 12.0511 12.0401 12.8203 10.889C13.5895 9.73785 14 8.38447 14 7C14 5.14348 13.2625 3.36301 11.9497 2.05025C10.637 0.737498 8.85652 0 7 0ZM7 13C5.81332 13 4.65328 12.6481 3.66658 11.9888C2.67989 11.3295 1.91085 10.3925 1.45673 9.2961C1.0026 8.19974 0.88378 6.99334 1.11529 5.82946C1.3468 4.66557 1.91825 3.59647 2.75736 2.75736C3.59648 1.91824 4.66558 1.3468 5.82946 1.11529C6.99335 0.883777 8.19975 1.0026 9.2961 1.45672C10.3925 1.91085 11.3295 2.67988 11.9888 3.66658C12.6481 4.65327 13 5.81331 13 7C13 8.5913 12.3679 10.1174 11.2426 11.2426C10.1174 12.3679 8.5913 13 7 13Z" fill="#EA580C"/>
<path d="M7.5 3H6.5V8.5H7.5V3Z" fill="#EA580C"/>
<path d="M7 10C6.85167 10 6.70666 10.044 6.58333 10.1264C6.45999 10.2088 6.36386 10.3259 6.30709 10.463C6.25033 10.6 6.23548 10.7508 6.26441 10.8963C6.29335 11.0418 6.36478 11.1754 6.46967 11.2803C6.57456 11.3852 6.7082 11.4566 6.85369 11.4856C6.99917 11.5145 7.14997 11.4997 7.28701 11.4429C7.42406 11.3861 7.54119 11.29 7.6236 11.1667C7.70602 11.0433 7.75 10.8983 7.75 10.75C7.75 10.5511 7.67098 10.3603 7.53033 10.2197C7.38968 10.079 7.19892 10 7 10Z" fill="#EA580C"/>
</svg>
