<svg width="171" height="132" viewBox="0 0 171 132" fill="none" xmlns="http://www.w3.org/2000/svg">
<path fill-rule="evenodd" clip-rule="evenodd" d="M0.788727 131.163V0.837494H44.4193V40.7569L63.6847 0.837494H107.315V40.7569L126.581 0.837494H170.211V131.163H126.581V91.2431L107.315 131.163H63.6847V91.2431L44.4193 131.163H0.788727ZM37.6197 7.63706H7.58829V117.073L37.6197 54.8461V7.63706ZM133.38 124.363H163.412V14.9267L133.38 77.1539V124.363ZM103.047 124.363L159.38 7.63706H130.849L74.5163 124.363H103.047ZM96.4837 7.63706H67.9532L11.6203 124.363H40.1508L96.4837 7.63706ZM100.516 14.9267L70.4843 77.1539V117.073L100.516 54.8461V14.9267Z" fill="#0A0A0A"/>
</svg>
